<svg version="1.1" id="Layer_1" xmlns="http://www.w3.org/2000/svg" xmlns:xlink="http://www.w3.org/1999/xlink" x="0px" y="0px"
	 width="100%" viewBox="0 0 1080 1080" enable-background="new 0 0 1080 1080" xml:space="preserve">
<path fill="#FFAF69" opacity="1.000000" stroke="none" 
	d="
M716.000000,1081.000000 
	C477.360809,1081.000000 239.221634,1081.000000 1.041225,1081.000000 
	C1.041225,721.069031 1.041225,361.138062 1.041225,1.103538 
	C360.889404,1.103538 720.778870,1.103538 1080.834229,1.103538 
	C1080.834229,360.999939 1080.834229,720.999939 1080.834229,1081.000000 
	C959.470947,1081.000000 837.985474,1081.000000 716.000000,1081.000000 
M755.500000,734.132446 
	C805.252625,734.132446 855.005249,734.132446 905.845215,734.132446 
	C904.323669,731.697754 903.446594,730.180664 902.462402,728.736572 
	C889.136902,709.184692 875.898865,689.571716 862.372314,670.159790 
	C859.723816,666.359009 859.422546,663.769287 862.216431,659.768494 
	C876.049011,639.960693 889.508362,619.892151 903.086487,599.906921 
	C904.036743,598.508301 904.883179,597.039062 906.373962,594.645691 
	C871.834229,594.645691 838.522827,594.645691 804.317627,594.645691 
	C815.701721,583.673279 826.327820,573.431458 837.516541,562.647339 
	C835.046753,561.886353 833.370605,561.321411 831.668030,560.852722 
	C812.387634,555.544678 792.985229,550.634888 773.879822,544.758972 
	C766.590881,542.517334 761.650085,543.305054 756.501709,549.058472 
	C750.345398,555.938354 743.235413,561.964905 735.943115,568.929688 
	C738.490295,569.711914 740.189270,570.270813 741.909180,570.755737 
	C752.013245,573.604248 762.125366,576.424072 772.227661,579.278931 
	C775.831848,580.297485 778.192505,582.562744 777.866333,586.462463 
	C777.519714,590.607910 774.626465,592.541626 770.725708,592.753418 
	C768.433594,592.877930 766.026611,592.737976 763.814819,592.164124 
	C755.268616,589.946960 746.397583,588.394775 738.364380,584.932068 
	C727.718689,580.343201 719.606262,581.634460 712.773071,591.161255 
	C711.542725,592.876465 709.169617,594.688477 707.222412,594.808716 
	C700.157227,595.245056 693.048889,594.980713 688.127014,594.980713 
	C695.002136,587.375671 702.527161,578.763733 710.418579,570.501770 
	C712.721191,568.091064 713.451538,566.356995 712.042847,563.189636 
	C707.240967,552.393616 702.745056,541.461243 698.154907,530.571411 
	C697.640930,529.352112 697.132202,528.101562 696.858521,526.815002 
	C695.828369,521.971680 697.604431,518.534485 701.712891,517.199829 
	C705.854309,515.854492 710.028564,517.764343 711.864990,522.085083 
	C715.120056,529.743347 718.228149,537.463989 721.422058,545.148438 
	C722.787048,548.432678 724.212952,551.691650 725.856140,555.534912 
	C732.674011,548.980225 738.500732,542.479492 745.253967,537.153748 
	C751.286438,532.396423 752.241516,527.645508 750.092896,520.484497 
	C746.054504,507.025574 743.059875,493.253479 739.453979,478.906158 
	C733.090698,484.930267 727.242615,490.466644 720.326111,497.014435 
	C715.241089,486.031921 709.455444,476.171570 706.143188,465.540588 
	C703.537659,457.177612 703.524841,447.882172 703.169861,438.968689 
	C702.425903,420.283234 705.054138,402.134644 712.949280,384.911469 
	C714.137268,382.319855 714.430603,378.757843 713.766418,375.971710 
	C710.371643,361.732086 706.729675,347.543060 702.792297,333.442963 
	C696.800354,311.985382 691.521118,290.249725 684.058044,269.302368 
	C675.095764,244.147324 659.093506,223.928268 635.463623,210.405167 
	C608.657898,195.064606 579.540161,194.524536 549.966370,196.981888 
	C548.847229,197.074875 547.243958,198.309052 546.888428,199.357910 
	C545.681580,202.918213 544.934143,206.634247 544.174316,209.644760 
	C552.568665,214.765411 560.763000,218.979401 568.089783,224.372101 
	C596.674866,245.411438 613.045898,274.652832 623.092712,307.984619 
	C628.015686,324.317230 627.704651,340.516998 621.768555,356.511749 
	C616.520142,370.653564 605.904297,380.581940 594.643250,389.824646 
	C591.803467,392.155426 591.404663,394.272736 592.255981,397.485352 
	C595.963562,411.475983 599.506836,425.510101 603.140076,439.520569 
	C605.919556,450.238434 608.744446,460.944489 611.720215,472.309509 
	C616.020874,468.352783 619.690674,464.797943 623.549500,461.461823 
	C632.731201,453.523895 645.105835,452.650482 654.924561,459.787415 
	C658.881836,462.663818 662.684326,466.328339 665.247009,470.449036 
	C676.551758,488.626434 680.667053,508.520264 677.739990,529.762817 
	C676.808472,536.523621 674.220825,542.417114 668.597656,546.882507 
	C664.570496,550.080444 661.180298,554.067871 657.305969,557.475708 
	C654.979980,559.521606 654.565308,561.591553 655.340637,564.527954 
	C657.968140,574.478638 660.342773,584.496155 662.874756,594.733765 
	C645.828613,594.733765 629.123840,594.733765 611.293457,594.733765 
	C618.989075,586.829468 625.707336,579.277832 633.149963,572.524536 
	C637.741455,568.358215 639.293579,564.223450 636.740784,558.696960 
	C635.443115,555.887756 636.440369,554.117920 638.533813,552.216370 
	C643.466797,547.735535 647.813843,542.513123 653.121094,538.562317 
	C661.921875,532.011047 662.479004,523.171448 661.787354,513.252441 
	C646.025024,508.925659 630.272705,504.750549 614.630737,500.196503 
	C611.002014,499.140045 608.923950,499.986877 606.433167,502.562653 
	C577.700623,532.274536 548.855713,561.877808 520.012146,591.482056 
	C518.763550,592.763550 517.282715,594.687744 515.834290,594.758423 
	C508.809052,595.101196 501.757874,594.913147 493.872314,594.913147 
	C495.369202,593.261169 496.114441,592.394714 496.905334,591.572266 
	C529.458862,557.718811 561.966797,523.821228 594.662720,490.105835 
	C597.435669,487.246368 597.740173,484.849518 596.804443,481.337769 
	C592.438721,464.952393 588.276123,448.512878 584.044373,432.091827 
	C581.823975,423.475891 579.610657,414.858154 577.227356,405.593140 
	C575.247070,407.445282 573.913940,408.669586 572.605164,409.919434 
	C509.327545,470.347717 446.034882,530.760254 382.831268,591.265869 
	C379.954681,594.019653 377.104462,595.084473 373.146362,595.077820 
	C305.480682,594.964111 237.814774,594.996399 170.148926,594.996399 
	C168.255463,594.996399 166.362015,594.996338 163.514252,594.996338 
	C165.237183,597.614075 166.289444,599.266418 167.394073,600.882935 
	C180.743790,620.418823 193.925888,640.073547 207.590485,659.386841 
	C210.680069,663.753662 210.292374,666.454102 207.406708,670.556458 
	C193.890335,689.772034 180.719269,709.230591 167.441330,728.613647 
	C166.387878,730.151489 165.460495,731.775818 163.818298,734.414307 
	C187.321854,734.414307 209.478195,734.414307 232.910110,734.414307 
	C228.662033,737.849548 226.762100,740.509888 228.076416,745.297424 
	C232.520294,761.485046 236.348450,777.841614 240.408615,794.134460 
	C244.372833,810.042297 248.333008,825.951111 252.294937,841.859497 
	C252.843994,842.252563 253.393051,842.645630 253.942108,843.038696 
	C254.893845,841.481445 255.594818,839.681213 256.834076,838.402588 
	C289.310120,804.891785 321.832214,771.425598 354.395782,737.999817 
	C355.854370,736.502625 357.713074,734.485229 359.491638,734.371521 
	C366.209747,733.942078 372.971680,734.198975 381.260651,734.198975 
	C339.775848,776.884094 299.339203,818.490662 258.775574,860.227966 
	C270.802490,874.646301 284.386353,885.566040 303.555542,886.210449 
	C317.963379,886.694824 330.992493,883.060669 341.583618,872.100647 
	C384.782013,827.397461 428.244995,782.949951 471.503601,738.304688 
	C474.415283,735.299683 477.302124,734.041565 481.503387,734.046753 
	C572.502136,734.159485 663.501099,734.132507 755.500000,734.132446 
M757.345581,377.003906 
	C772.376465,381.075195 787.407349,385.146484 803.233337,389.433136 
	C802.639038,386.811737 802.298340,385.082855 801.853210,383.381287 
	C798.569092,370.829437 795.245483,358.287872 791.969727,345.733826 
	C786.428528,324.497803 781.703247,302.999542 771.701355,283.209503 
	C760.338135,260.725830 744.712158,242.038803 720.994080,232.374603 
	C705.513000,226.066666 689.031250,222.214310 672.989197,217.289703 
	C672.837585,217.243179 672.569763,217.575287 672.220337,217.829422 
	C672.607544,218.391571 672.922729,218.970703 673.349182,219.450958 
	C690.537842,238.806107 700.904480,261.722229 707.643066,286.367493 
	C714.704590,312.193878 721.296936,338.149841 727.902527,364.098022 
	C728.859680,367.857971 730.269897,370.026184 734.356812,370.903381 
	C741.834595,372.508392 749.166382,374.792969 757.345581,377.003906 
M759.854309,458.477722 
	C771.704346,461.758636 783.554382,465.039581 796.034241,468.494904 
	C794.979431,447.183319 797.438232,427.067780 806.987793,407.803802 
	C804.636536,407.128937 802.767761,406.569458 800.886414,406.056091 
	C781.602844,400.794495 762.317261,395.540283 743.032227,390.284180 
	C729.254211,386.528931 729.488403,386.608154 724.763550,400.600677 
	C718.689941,418.587524 719.393311,437.044220 720.613464,455.489136 
	C720.910095,459.973328 723.459900,464.308441 725.142151,469.202393 
	C726.913574,467.601807 727.905884,466.722931 728.878845,465.823059 
	C733.153198,461.869873 736.898132,455.744476 741.836975,454.550415 
	C746.983459,453.306122 753.279480,456.816071 759.854309,458.477722 
M764.798950,510.905365 
	C765.658997,514.465759 766.765259,517.989075 767.308777,521.597107 
	C767.836426,525.099609 769.660156,526.442261 772.986816,527.334717 
	C794.377869,533.073303 815.700745,539.065491 837.052002,544.953064 
	C838.585022,545.375793 840.164734,545.629028 842.016296,546.023560 
	C842.016296,544.924683 842.144897,544.267517 841.997620,543.679565 
	C838.153809,528.339172 834.361389,512.984558 830.284485,497.705933 
	C829.895935,496.249725 827.883606,494.623901 826.312317,494.177032 
	C804.526184,487.981628 782.686768,481.973450 760.854736,475.940216 
	C759.388062,475.534912 757.875732,475.294891 755.611023,474.813568 
	C758.770386,487.239471 761.677490,498.673309 764.798950,510.905365 
M628.978699,486.361542 
	C638.453491,488.910126 647.928223,491.458710 657.403015,494.007294 
	C657.814514,493.527222 658.226074,493.047180 658.637573,492.567108 
	C655.250977,486.984192 652.276367,481.089752 648.358704,475.908356 
	C644.640625,470.990753 639.366028,470.354279 635.259888,473.696625 
	C631.312134,476.910004 627.742371,480.587585 623.479858,484.550842 
	C625.550537,485.252075 626.895508,485.707520 628.978699,486.361542 
z"/>
<path fill="#0267CB" opacity="1.000000" stroke="none" 
	d="
M755.000000,734.132446 
	C663.501099,734.132507 572.502136,734.159485 481.503387,734.046753 
	C477.302124,734.041565 474.415283,735.299683 471.503601,738.304688 
	C428.244995,782.949951 384.782013,827.397461 341.583618,872.100647 
	C330.992493,883.060669 317.963379,886.694824 303.555542,886.210449 
	C284.386353,885.566040 270.802490,874.646301 258.775574,860.227966 
	C299.339203,818.490662 339.775848,776.884094 381.260651,734.198975 
	C372.971680,734.198975 366.209747,733.942078 359.491638,734.371521 
	C357.713074,734.485229 355.854370,736.502625 354.395782,737.999817 
	C321.832214,771.425598 289.310120,804.891785 256.834076,838.402588 
	C255.594818,839.681213 254.893845,841.481445 253.942108,843.038696 
	C253.393051,842.645630 252.843994,842.252563 252.294937,841.859497 
	C248.333008,825.951111 244.372833,810.042297 240.408615,794.134460 
	C236.348450,777.841614 232.520294,761.485046 228.076416,745.297424 
	C226.762100,740.509888 228.662033,737.849548 232.910110,734.414307 
	C209.478195,734.414307 187.321854,734.414307 163.818298,734.414307 
	C165.460495,731.775818 166.387878,730.151489 167.441330,728.613647 
	C180.719269,709.230591 193.890335,689.772034 207.406708,670.556458 
	C210.292374,666.454102 210.680069,663.753662 207.590485,659.386841 
	C193.925888,640.073547 180.743790,620.418823 167.394073,600.882935 
	C166.289444,599.266418 165.237183,597.614075 163.514252,594.996338 
	C166.362015,594.996338 168.255463,594.996399 170.148926,594.996399 
	C237.814774,594.996399 305.480682,594.964111 373.146362,595.077820 
	C377.104462,595.084473 379.954681,594.019653 382.831268,591.265869 
	C446.034882,530.760254 509.327545,470.347717 572.605164,409.919434 
	C573.913940,408.669586 575.247070,407.445282 577.227356,405.593140 
	C579.610657,414.858154 581.823975,423.475891 584.044373,432.091827 
	C588.276123,448.512878 592.438721,464.952393 596.804443,481.337769 
	C597.740173,484.849518 597.435669,487.246368 594.662720,490.105835 
	C561.966797,523.821228 529.458862,557.718811 496.905334,591.572266 
	C496.114441,592.394714 495.369202,593.261169 493.872314,594.913147 
	C501.757874,594.913147 508.809052,595.101196 515.834290,594.758423 
	C517.282715,594.687744 518.763550,592.763550 520.012146,591.482056 
	C548.855713,561.877808 577.700623,532.274536 606.433167,502.562653 
	C608.923950,499.986877 611.002014,499.140045 614.630737,500.196503 
	C630.272705,504.750549 646.025024,508.925659 661.787354,513.252441 
	C662.479004,523.171448 661.921875,532.011047 653.121094,538.562317 
	C647.813843,542.513123 643.466797,547.735535 638.533813,552.216370 
	C636.440369,554.117920 635.443115,555.887756 636.740784,558.696960 
	C639.293579,564.223450 637.741455,568.358215 633.149963,572.524536 
	C625.707336,579.277832 618.989075,586.829468 611.293457,594.733765 
	C629.123840,594.733765 645.828613,594.733765 662.874756,594.733765 
	C660.342773,584.496155 657.968140,574.478638 655.340637,564.527954 
	C654.565308,561.591553 654.979980,559.521606 657.305969,557.475708 
	C661.180298,554.067871 664.570496,550.080444 668.597656,546.882507 
	C674.220825,542.417114 676.808472,536.523621 677.739990,529.762817 
	C680.667053,508.520264 676.551758,488.626434 665.247009,470.449036 
	C662.684326,466.328339 658.881836,462.663818 654.924561,459.787415 
	C645.105835,452.650482 632.731201,453.523895 623.549500,461.461823 
	C619.690674,464.797943 616.020874,468.352783 611.720215,472.309509 
	C608.744446,460.944489 605.919556,450.238434 603.140076,439.520569 
	C599.506836,425.510101 595.963562,411.475983 592.255981,397.485352 
	C591.404663,394.272736 591.803467,392.155426 594.643250,389.824646 
	C605.904297,380.581940 616.520142,370.653564 621.768555,356.511749 
	C627.704651,340.516998 628.015686,324.317230 623.092712,307.984619 
	C613.045898,274.652832 596.674866,245.411438 568.089783,224.372101 
	C560.763000,218.979401 552.568665,214.765411 544.174316,209.644760 
	C544.934143,206.634247 545.681580,202.918213 546.888428,199.357910 
	C547.243958,198.309052 548.847229,197.074875 549.966370,196.981888 
	C579.540161,194.524536 608.657898,195.064606 635.463623,210.405167 
	C659.093506,223.928268 675.095764,244.147324 684.058044,269.302368 
	C691.521118,290.249725 696.800354,311.985382 702.792297,333.442963 
	C706.729675,347.543060 710.371643,361.732086 713.766418,375.971710 
	C714.430603,378.757843 714.137268,382.319855 712.949280,384.911469 
	C705.054138,402.134644 702.425903,420.283234 703.169861,438.968689 
	C703.524841,447.882172 703.537659,457.177612 706.143188,465.540588 
	C709.455444,476.171570 715.241089,486.031921 720.326111,497.014435 
	C727.242615,490.466644 733.090698,484.930267 739.453979,478.906158 
	C743.059875,493.253479 746.054504,507.025574 750.092896,520.484497 
	C752.241516,527.645508 751.286438,532.396423 745.253967,537.153748 
	C738.500732,542.479492 732.674011,548.980225 725.856140,555.534912 
	C724.212952,551.691650 722.787048,548.432678 721.422058,545.148438 
	C718.228149,537.463989 715.120056,529.743347 711.864990,522.085083 
	C710.028564,517.764343 705.854309,515.854492 701.712891,517.199829 
	C697.604431,518.534485 695.828369,521.971680 696.858521,526.815002 
	C697.132202,528.101562 697.640930,529.352112 698.154907,530.571411 
	C702.745056,541.461243 707.240967,552.393616 712.042847,563.189636 
	C713.451538,566.356995 712.721191,568.091064 710.418579,570.501770 
	C702.527161,578.763733 695.002136,587.375671 688.127014,594.980713 
	C693.048889,594.980713 700.157227,595.245056 707.222412,594.808716 
	C709.169617,594.688477 711.542725,592.876465 712.773071,591.161255 
	C719.606262,581.634460 727.718689,580.343201 738.364380,584.932068 
	C746.397583,588.394775 755.268616,589.946960 763.814819,592.164124 
	C766.026611,592.737976 768.433594,592.877930 770.725708,592.753418 
	C774.626465,592.541626 777.519714,590.607910 777.866333,586.462463 
	C778.192505,582.562744 775.831848,580.297485 772.227661,579.278931 
	C762.125366,576.424072 752.013245,573.604248 741.909180,570.755737 
	C740.189270,570.270813 738.490295,569.711914 735.943115,568.929688 
	C743.235413,561.964905 750.345398,555.938354 756.501709,549.058472 
	C761.650085,543.305054 766.590881,542.517334 773.879822,544.758972 
	C792.985229,550.634888 812.387634,555.544678 831.668030,560.852722 
	C833.370605,561.321411 835.046753,561.886353 837.516541,562.647339 
	C826.327820,573.431458 815.701721,583.673279 804.317627,594.645691 
	C838.522827,594.645691 871.834229,594.645691 906.373962,594.645691 
	C904.883179,597.039062 904.036743,598.508301 903.086487,599.906921 
	C889.508362,619.892151 876.049011,639.960693 862.216431,659.768494 
	C859.422546,663.769287 859.723816,666.359009 862.372314,670.159790 
	C875.898865,689.571716 889.136902,709.184692 902.462402,728.736572 
	C903.446594,730.180664 904.323669,731.697754 905.845215,734.132446 
	C855.005249,734.132446 805.252625,734.132446 755.000000,734.132446 
M577.897583,673.939819 
	C578.304688,675.688416 579.294556,677.533142 579.024353,679.169922 
	C577.258057,689.871765 579.279663,699.931885 583.430664,709.764343 
	C584.690125,712.747498 586.456665,714.164795 589.834595,714.048889 
	C597.251282,713.794312 601.012390,709.841797 599.842224,702.506531 
	C598.241089,692.469849 598.783752,682.571228 601.342407,672.822876 
	C603.154907,665.917419 605.578308,659.174072 607.595886,652.319153 
	C608.033569,650.831970 608.341370,649.060486 607.957397,647.620361 
	C606.364868,641.647766 604.446106,635.763123 602.722107,629.824341 
	C601.438232,625.401367 600.065430,624.927490 595.943604,627.107849 
	C589.939026,630.284241 588.802246,636.396667 587.105530,641.940491 
	C585.193359,648.188477 584.237549,654.724487 582.649841,661.081238 
	C582.403442,662.067688 581.004639,662.766296 580.294983,662.798340 
	C578.973267,658.359924 578.320679,653.570374 576.209229,649.546387 
	C568.733704,635.299683 555.377625,627.278748 542.042786,619.806213 
	C534.128418,615.371033 525.121704,612.859253 516.541809,609.654846 
	C514.327759,608.828003 510.058380,607.807556 509.823334,608.312927 
	C508.407135,611.358459 507.589752,614.787231 507.199280,618.160400 
	C507.006531,619.825378 508.299255,621.618286 508.645569,623.406433 
	C508.848389,624.454041 508.919983,626.241516 508.350677,626.607544 
	C504.788391,628.897766 506.075500,631.981079 506.487366,635.061707 
	C507.368530,641.653015 509.190430,648.364014 508.607574,654.844421 
	C507.846710,663.303589 505.722229,671.778870 503.091034,679.892578 
	C500.389069,688.224365 499.273560,696.296143 501.959564,704.693420 
	C504.442719,712.456421 509.450714,714.662415 516.788574,711.494690 
	C524.128479,708.326172 531.798462,705.811096 538.844910,702.100220 
	C549.113464,696.692261 559.185425,690.820496 568.852539,684.409546 
	C572.314087,682.113953 574.356689,677.678711 577.897583,673.939819 
M360.849487,652.436768 
	C361.263123,649.174866 361.658600,645.910583 362.094910,642.651733 
	C362.668457,638.367554 364.099640,634.006287 363.687531,629.823425 
	C362.921997,622.053589 356.882019,617.145142 351.454559,612.567627 
	C345.794617,607.794128 341.598602,609.226929 337.876312,615.389404 
	C336.256104,618.071777 334.363068,620.720642 332.095581,622.855408 
	C325.911774,628.677307 319.664337,634.469666 313.037781,639.768005 
	C309.449066,642.637390 305.181549,644.803467 300.953796,646.689575 
	C296.142456,648.836121 291.955383,646.900757 291.657898,642.914062 
	C291.437500,639.959961 291.187408,636.983398 291.314758,634.032593 
	C291.780823,623.233459 288.180054,617.165894 278.951843,613.135254 
	C277.762177,612.615723 276.783630,611.290039 276.042847,610.124512 
	C273.585144,606.257812 270.560364,605.139587 266.943817,607.932190 
	C263.726685,610.416260 260.780670,613.533325 258.500336,616.902527 
	C245.142517,636.638794 236.401810,658.682068 227.730118,680.671997 
	C223.564163,691.236145 226.350998,701.726074 231.785858,711.355835 
	C233.972595,715.230408 240.477203,715.681702 242.796997,711.822388 
	C246.394165,705.838013 249.062180,699.291138 252.058975,692.951965 
	C253.166443,690.609192 254.062851,688.167542 255.104782,685.792664 
	C256.006989,683.736206 257.092041,681.753967 257.897858,679.662476 
	C259.940277,674.361450 261.871246,669.017395 263.846863,663.690613 
	C264.361053,663.706482 264.875244,663.722290 265.389404,663.738098 
	C265.616150,664.168335 265.855530,664.592468 266.067841,665.029663 
	C273.449493,680.231079 286.879700,683.114014 301.038239,676.931519 
	C311.184570,672.500854 320.525604,666.225342 330.222809,660.767395 
	C331.486847,660.055969 332.732422,659.311768 334.681427,658.178894 
	C334.681427,659.939453 334.801331,660.593933 334.663239,661.188538 
	C332.935028,668.629272 330.764526,675.994812 329.528290,683.514587 
	C328.312500,690.910095 327.773407,698.562683 331.699677,705.461548 
	C332.808624,707.410095 335.520996,710.211975 336.910034,709.910767 
	C341.438599,708.928955 346.189758,707.663025 348.787323,702.871826 
	C357.169342,687.411377 357.937927,670.130371 360.849487,652.436768 
M730.766602,626.181641 
	C723.624878,627.796692 716.324890,628.929321 709.398438,631.200806 
	C704.967285,632.653870 700.878723,635.508057 697.081299,638.332031 
	C695.850098,639.247620 694.983582,642.827209 695.747986,643.868530 
	C698.728210,647.928223 702.025391,651.993225 706.002930,655.000427 
	C708.718994,657.053894 712.659790,657.278564 714.527344,652.633911 
	C714.893066,651.724365 716.217041,651.200195 717.098999,650.498230 
	C717.518738,650.767151 717.938416,651.036072 718.358093,651.304932 
	C717.287964,655.228333 716.271423,659.167236 715.136536,663.071777 
	C712.785522,671.160522 710.313538,679.214355 708.000366,687.313782 
	C705.801392,695.013245 701.528320,702.581726 707.805359,710.559082 
	C711.988220,715.875122 715.927002,716.658386 720.347839,712.534485 
	C723.900635,713.510376 727.388184,715.623108 730.386230,715.072205 
	C738.903564,713.507080 747.333435,711.197205 755.573730,708.497070 
	C760.257690,706.962219 764.677856,704.371643 768.908813,701.757996 
	C777.288635,696.581360 779.559998,688.621155 774.479370,680.716980 
	C772.029968,676.906311 768.141174,674.006653 764.831604,670.768677 
	C763.109802,669.083984 761.230225,667.560486 759.179016,665.749817 
	C762.690918,661.975403 765.968201,658.884460 768.725098,655.383728 
	C772.372498,650.752075 775.525879,645.850647 772.291382,639.492493 
	C768.928650,632.882568 763.255493,628.023438 756.667847,626.669373 
	C748.616577,625.014587 739.998840,626.116028 730.766602,626.181641 
M654.891052,625.585815 
	C644.168030,627.825439 633.353210,629.716736 622.774719,632.504822 
	C619.342834,633.409302 616.316589,636.428711 613.546021,638.963074 
	C612.538269,639.884827 611.951965,642.894165 612.652893,643.778748 
	C615.887878,647.861267 619.253845,652.044495 623.355896,655.161072 
	C625.943115,657.126892 629.764282,657.032959 631.491516,652.679321 
	C631.827881,651.831604 633.016296,651.321960 634.990540,649.669800 
	C634.685852,652.616516 634.756165,654.199524 634.337036,655.640198 
	C630.143738,670.054871 625.889648,684.452087 621.606445,698.840393 
	C620.322388,703.153809 623.229736,709.676636 627.867249,713.526123 
	C631.952820,716.917603 635.067810,714.870117 638.159851,711.856873 
	C643.854126,716.652710 650.026611,715.999939 656.267273,714.195557 
	C658.792908,713.465271 661.274719,712.530029 663.694031,711.495300 
	C671.163513,708.300476 678.953369,705.638184 685.950806,701.609009 
	C695.534668,696.090576 696.791260,686.450256 689.499207,678.229919 
	C685.581543,673.813538 680.970154,670.012634 676.317261,665.597717 
	C679.418701,662.283264 682.500732,659.290833 685.237427,656.010193 
	C694.593018,644.794800 688.522217,628.572083 673.964661,626.403748 
	C668.008118,625.516479 661.873901,625.822205 654.891052,625.585815 
M399.549103,705.985962 
	C408.880066,709.496887 418.116425,713.301086 427.593536,716.359192 
	C430.896149,717.424927 434.882690,717.175659 438.396729,716.580750 
	C442.940460,715.811462 444.835480,712.054749 444.170166,706.003113 
	C443.722595,701.932068 442.717560,698.376892 437.342407,697.711365 
	C431.088837,696.936951 424.795074,695.691345 418.815399,693.740845 
	C413.605194,692.041260 408.807526,689.077087 403.827545,686.671753 
	C403.940002,686.096130 404.052490,685.520508 404.164948,684.944885 
	C406.898438,683.949463 409.694946,683.097412 412.352661,681.929504 
	C418.418030,679.264221 424.757996,676.998108 430.349487,673.539917 
	C436.652222,669.641846 438.670837,663.096924 436.707855,656.018188 
	C433.920563,645.966919 429.275269,636.906006 420.808929,630.214111 
	C412.406525,623.572693 407.781067,623.697388 400.444122,631.576843 
	C397.391571,634.855164 394.857758,638.613831 392.047638,642.121643 
	C390.591980,643.938721 389.211945,645.872803 387.477783,647.387573 
	C386.554199,648.194275 384.656769,648.895813 383.701782,648.482544 
	C379.474915,646.653381 378.345520,649.055847 377.603210,652.372742 
	C375.280731,662.750122 372.254822,673.033264 370.861328,683.533386 
	C369.917053,690.648804 365.755890,697.533264 369.459747,705.393127 
	C371.279785,709.255432 372.814911,713.166199 376.915466,713.495361 
	C380.933319,713.817993 384.237000,710.992004 385.760864,706.839050 
	C386.775787,704.073120 387.835815,701.323730 388.966583,698.325867 
	C392.533142,700.937683 395.726471,703.276184 399.549103,705.985962 
M821.394043,656.127991 
	C818.534119,654.623657 815.674133,653.119263 812.814209,651.614929 
	C812.954895,651.160400 813.095581,650.705872 813.236328,650.251343 
	C819.180725,648.905518 825.075134,646.803101 831.082214,646.406799 
	C838.454834,645.920349 845.920166,646.897583 853.348145,647.168030 
	C857.540100,647.320679 861.206177,643.881165 860.344543,640.741516 
	C857.533020,630.495972 850.456665,625.131165 839.743958,625.248230 
	C837.254944,625.275391 834.636475,625.187073 832.303955,625.896118 
	C817.847534,630.290894 803.424500,634.803284 789.074829,639.532959 
	C786.819397,640.276306 784.743164,642.074341 783.012939,643.811768 
	C775.674194,651.181458 778.955322,664.485107 788.861877,667.371460 
	C792.346863,668.386902 796.093323,668.468445 799.644165,669.301331 
	C806.528259,670.916016 813.408875,672.588440 820.190857,674.577942 
	C824.015503,675.699829 824.159363,678.115295 821.394836,680.855469 
	C812.679443,689.493958 802.204041,694.290283 789.977356,695.133667 
	C787.556396,695.300598 784.932373,695.013855 784.870667,698.318115 
	C784.802856,701.951477 784.790161,705.687622 785.554626,709.204773 
	C786.245605,712.383789 788.251038,714.565186 792.310059,714.418335 
	C809.482910,713.797424 823.578003,707.008057 833.908997,693.335876 
	C839.766968,685.583252 839.508606,678.474487 833.535828,670.476624 
	C829.952881,665.678833 829.456970,658.136414 821.394043,656.127991 
z"/>
<path fill="#0267CB" opacity="1.000000" stroke="none" 
	d="
M756.952332,376.899017 
	C749.166382,374.792969 741.834595,372.508392 734.356812,370.903381 
	C730.269897,370.026184 728.859680,367.857971 727.902527,364.098022 
	C721.296936,338.149841 714.704590,312.193878 707.643066,286.367493 
	C700.904480,261.722229 690.537842,238.806107 673.349182,219.450958 
	C672.922729,218.970703 672.607544,218.391571 672.220337,217.829422 
	C672.569763,217.575287 672.837585,217.243179 672.989197,217.289703 
	C689.031250,222.214310 705.513000,226.066666 720.994080,232.374603 
	C744.712158,242.038803 760.338135,260.725830 771.701355,283.209503 
	C781.703247,302.999542 786.428528,324.497803 791.969727,345.733826 
	C795.245483,358.287872 798.569092,370.829437 801.853210,383.381287 
	C802.298340,385.082855 802.639038,386.811737 803.233337,389.433136 
	C787.407349,385.146484 772.376465,381.075195 756.952332,376.899017 
z"/>
<path fill="#0367CB" opacity="1.000000" stroke="none" 
	d="
M759.463623,458.362549 
	C753.279480,456.816071 746.983459,453.306122 741.836975,454.550415 
	C736.898132,455.744476 733.153198,461.869873 728.878845,465.823059 
	C727.905884,466.722931 726.913574,467.601807 725.142151,469.202393 
	C723.459900,464.308441 720.910095,459.973328 720.613464,455.489136 
	C719.393311,437.044220 718.689941,418.587524 724.763550,400.600677 
	C729.488403,386.608154 729.254211,386.528931 743.032227,390.284180 
	C762.317261,395.540283 781.602844,400.794495 800.886414,406.056091 
	C802.767761,406.569458 804.636536,407.128937 806.987793,407.803802 
	C797.438232,427.067780 794.979431,447.183319 796.034241,468.494904 
	C783.554382,465.039581 771.704346,461.758636 759.463623,458.362549 
z"/>
<path fill="#0467CB" opacity="1.000000" stroke="none" 
	d="
M764.691772,510.506226 
	C761.677490,498.673309 758.770386,487.239471 755.611023,474.813568 
	C757.875732,475.294891 759.388062,475.534912 760.854736,475.940216 
	C782.686768,481.973450 804.526184,487.981628 826.312317,494.177032 
	C827.883606,494.623901 829.895935,496.249725 830.284485,497.705933 
	C834.361389,512.984558 838.153809,528.339172 841.997620,543.679565 
	C842.144897,544.267517 842.016296,544.924683 842.016296,546.023560 
	C840.164734,545.629028 838.585022,545.375793 837.052002,544.953064 
	C815.700745,539.065491 794.377869,533.073303 772.986816,527.334717 
	C769.660156,526.442261 767.836426,525.099609 767.308777,521.597107 
	C766.765259,517.989075 765.658997,514.465759 764.691772,510.506226 
z"/>
<path fill="#0C69C7" opacity="1.000000" stroke="none" 
	d="
M628.609619,486.262268 
	C626.895508,485.707520 625.550537,485.252075 623.479858,484.550842 
	C627.742371,480.587585 631.312134,476.910004 635.259888,473.696625 
	C639.366028,470.354279 644.640625,470.990753 648.358704,475.908356 
	C652.276367,481.089752 655.250977,486.984192 658.637573,492.567108 
	C658.226074,493.047180 657.814514,493.527222 657.403015,494.007294 
	C647.928223,491.458710 638.453491,488.910126 628.609619,486.262268 
z"/>
<path fill="#FBAE6A" opacity="1.000000" stroke="none" 
	d="
M360.850037,652.897339 
	C357.937927,670.130371 357.169342,687.411377 348.787323,702.871826 
	C346.189758,707.663025 341.438599,708.928955 336.910034,709.910767 
	C335.520996,710.211975 332.808624,707.410095 331.699677,705.461548 
	C327.773407,698.562683 328.312500,690.910095 329.528290,683.514587 
	C330.764526,675.994812 332.935028,668.629272 334.663239,661.188538 
	C334.801331,660.593933 334.681427,659.939453 334.681427,658.178894 
	C332.732422,659.311768 331.486847,660.055969 330.222809,660.767395 
	C320.525604,666.225342 311.184570,672.500854 301.038239,676.931519 
	C286.879700,683.114014 273.449493,680.231079 266.067841,665.029663 
	C265.855530,664.592468 265.616150,664.168335 265.389404,663.738098 
	C264.875244,663.722290 264.361053,663.706482 263.846863,663.690613 
	C261.871246,669.017395 259.940277,674.361450 257.897858,679.662476 
	C257.092041,681.753967 256.006989,683.736206 255.104782,685.792664 
	C254.062851,688.167542 253.166443,690.609192 252.058975,692.951965 
	C249.062180,699.291138 246.394165,705.838013 242.796997,711.822388 
	C240.477203,715.681702 233.972595,715.230408 231.785858,711.355835 
	C226.350998,701.726074 223.564163,691.236145 227.730118,680.671997 
	C236.401810,658.682068 245.142517,636.638794 258.500336,616.902527 
	C260.780670,613.533325 263.726685,610.416260 266.943817,607.932190 
	C270.560364,605.139587 273.585144,606.257812 276.042847,610.124512 
	C276.783630,611.290039 277.762177,612.615723 278.951843,613.135254 
	C288.180054,617.165894 291.780823,623.233459 291.314758,634.032593 
	C291.187408,636.983398 291.437500,639.959961 291.657898,642.914062 
	C291.955383,646.900757 296.142456,648.836121 300.953796,646.689575 
	C305.181549,644.803467 309.449066,642.637390 313.037781,639.768005 
	C319.664337,634.469666 325.911774,628.677307 332.095581,622.855408 
	C334.363068,620.720642 336.256104,618.071777 337.876312,615.389404 
	C341.598602,609.226929 345.794617,607.794128 351.454559,612.567627 
	C356.882019,617.145142 362.921997,622.053589 363.687531,629.823425 
	C364.099640,634.006287 362.668457,638.367554 362.094910,642.651733 
	C361.658600,645.910583 361.263123,649.174866 360.850037,652.897339 
z"/>
<path fill="#FAAE6B" opacity="1.000000" stroke="none" 
	d="
M731.196289,626.103638 
	C739.998840,626.116028 748.616577,625.014587 756.667847,626.669373 
	C763.255493,628.023438 768.928650,632.882568 772.291382,639.492493 
	C775.525879,645.850647 772.372498,650.752075 768.725098,655.383728 
	C765.968201,658.884460 762.690918,661.975403 759.179016,665.749817 
	C761.230225,667.560486 763.109802,669.083984 764.831604,670.768677 
	C768.141174,674.006653 772.029968,676.906311 774.479370,680.716980 
	C779.559998,688.621155 777.288635,696.581360 768.908813,701.757996 
	C764.677856,704.371643 760.257690,706.962219 755.573730,708.497070 
	C747.333435,711.197205 738.903564,713.507080 730.386230,715.072205 
	C727.388184,715.623108 723.900635,713.510376 720.347839,712.534485 
	C715.927002,716.658386 711.988220,715.875122 707.805359,710.559082 
	C701.528320,702.581726 705.801392,695.013245 708.000366,687.313782 
	C710.313538,679.214355 712.785522,671.160522 715.136536,663.071777 
	C716.271423,659.167236 717.287964,655.228333 718.358093,651.304932 
	C717.938416,651.036072 717.518738,650.767151 717.098999,650.498230 
	C716.217041,651.200195 714.893066,651.724365 714.527344,652.633911 
	C712.659790,657.278564 708.718994,657.053894 706.002930,655.000427 
	C702.025391,651.993225 698.728210,647.928223 695.747986,643.868530 
	C694.983582,642.827209 695.850098,639.247620 697.081299,638.332031 
	C700.878723,635.508057 704.967285,632.653870 709.398438,631.200806 
	C716.324890,628.929321 723.624878,627.796692 731.196289,626.103638 
M755.846191,684.367920 
	C757.333374,682.967468 758.820618,681.567078 760.370605,680.107544 
	C754.212708,675.044861 737.678467,674.794678 732.521729,679.269714 
	C732.051270,679.678040 731.731506,680.339722 731.512451,680.945435 
	C729.668579,686.043640 727.864624,691.156189 725.667480,697.336731 
	C736.817688,694.431580 746.753357,691.372375 755.846191,684.367920 
M747.042480,642.111084 
	C739.773682,642.589539 732.716309,643.816040 725.674011,647.665649 
	C729.015564,650.462280 731.765259,652.763550 735.438293,655.837646 
	C740.512939,651.900635 745.791260,647.805542 751.069580,643.710449 
	C750.779419,643.244690 750.489258,642.778870 750.199097,642.313110 
	C749.413269,642.237549 748.627441,642.162048 747.042480,642.111084 
z"/>
<path fill="#FAAD6B" opacity="1.000000" stroke="none" 
	d="
M655.355774,625.585449 
	C661.873901,625.822205 668.008118,625.516479 673.964661,626.403748 
	C688.522217,628.572083 694.593018,644.794800 685.237427,656.010193 
	C682.500732,659.290833 679.418701,662.283264 676.317261,665.597717 
	C680.970154,670.012634 685.581543,673.813538 689.499207,678.229919 
	C696.791260,686.450256 695.534668,696.090576 685.950806,701.609009 
	C678.953369,705.638184 671.163513,708.300476 663.694031,711.495300 
	C661.274719,712.530029 658.792908,713.465271 656.267273,714.195557 
	C650.026611,715.999939 643.854126,716.652710 638.159851,711.856873 
	C635.067810,714.870117 631.952820,716.917603 627.867249,713.526123 
	C623.229736,709.676636 620.322388,703.153809 621.606445,698.840393 
	C625.889648,684.452087 630.143738,670.054871 634.337036,655.640198 
	C634.756165,654.199524 634.685852,652.616516 634.990540,649.669800 
	C633.016296,651.321960 631.827881,651.831604 631.491516,652.679321 
	C629.764282,657.032959 625.943115,657.126892 623.355896,655.161072 
	C619.253845,652.044495 615.887878,647.861267 612.652893,643.778748 
	C611.951965,642.894165 612.538269,639.884827 613.546021,638.963074 
	C616.316589,636.428711 619.342834,633.409302 622.774719,632.504822 
	C633.353210,629.716736 644.168030,627.825439 655.355774,625.585449 
M660.065186,676.330872 
	C657.975708,676.874817 655.837708,677.282288 653.811462,678.003845 
	C652.032227,678.637451 649.440430,679.197266 648.835876,680.528931 
	C646.539490,685.586853 644.903687,690.944763 642.958130,696.365479 
	C654.354675,696.491211 674.671387,685.921509 676.671021,678.992310 
	C671.851318,675.774170 666.486206,675.521851 660.065186,676.330872 
M666.401672,642.132019 
	C658.263367,642.162292 650.467712,643.512756 642.655090,647.687012 
	C645.483887,650.043152 647.575012,651.885864 649.784851,653.572998 
	C650.603394,654.197876 652.015198,655.088318 652.622131,654.785767 
	C658.462769,651.874451 664.397217,648.973755 666.401672,642.132019 
z"/>
<path fill="#F9AD6B" opacity="1.000000" stroke="none" 
	d="
M577.046936,674.220093 
	C574.356689,677.678711 572.314087,682.113953 568.852539,684.409546 
	C559.185425,690.820496 549.113464,696.692261 538.844910,702.100220 
	C531.798462,705.811096 524.128479,708.326172 516.788574,711.494690 
	C509.450714,714.662415 504.442719,712.456421 501.959564,704.693420 
	C499.273560,696.296143 500.389069,688.224365 503.091034,679.892578 
	C505.722229,671.778870 507.846710,663.303589 508.607574,654.844421 
	C509.190430,648.364014 507.368530,641.653015 506.487366,635.061707 
	C506.075500,631.981079 504.788391,628.897766 508.350677,626.607544 
	C508.919983,626.241516 508.848389,624.454041 508.645569,623.406433 
	C508.299255,621.618286 507.006531,619.825378 507.199280,618.160400 
	C507.589752,614.787231 508.407135,611.358459 509.823334,608.312927 
	C510.058380,607.807556 514.327759,608.828003 516.541809,609.654846 
	C525.121704,612.859253 534.128418,615.371033 542.042786,619.806213 
	C555.377625,627.278748 568.733704,635.299683 576.209229,649.546387 
	C578.320679,653.570374 578.973267,658.359924 580.126465,663.611450 
	C578.987610,667.689697 578.017273,670.954895 577.046936,674.220093 
M525.266724,634.172241 
	C524.966492,635.386230 524.177551,636.719482 524.440369,637.796021 
	C527.656250,650.966858 527.583435,664.165283 525.174438,677.429749 
	C524.930359,678.773865 525.006958,680.176270 524.934692,681.551636 
	C525.356018,681.973633 525.777283,682.395630 526.198608,682.817627 
	C536.465881,677.287231 546.815796,671.901062 556.934448,666.110962 
	C559.092590,664.875977 560.643005,662.314941 562.008911,660.080872 
	C562.609985,659.097656 562.623779,656.796814 561.921265,656.130493 
	C557.290466,651.737976 552.875061,646.800171 547.457275,643.636475 
	C540.786011,639.740906 533.206726,637.400452 525.266724,634.172241 
z"/>
<path fill="#FAAD6B" opacity="1.000000" stroke="none" 
	d="
M399.234436,705.800293 
	C395.726471,703.276184 392.533142,700.937683 388.966583,698.325867 
	C387.835815,701.323730 386.775787,704.073120 385.760864,706.839050 
	C384.237000,710.992004 380.933319,713.817993 376.915466,713.495361 
	C372.814911,713.166199 371.279785,709.255432 369.459747,705.393127 
	C365.755890,697.533264 369.917053,690.648804 370.861328,683.533386 
	C372.254822,673.033264 375.280731,662.750122 377.603210,652.372742 
	C378.345520,649.055847 379.474915,646.653381 383.701782,648.482544 
	C384.656769,648.895813 386.554199,648.194275 387.477783,647.387573 
	C389.211945,645.872803 390.591980,643.938721 392.047638,642.121643 
	C394.857758,638.613831 397.391571,634.855164 400.444122,631.576843 
	C407.781067,623.697388 412.406525,623.572693 420.808929,630.214111 
	C429.275269,636.906006 433.920563,645.966919 436.707855,656.018188 
	C438.670837,663.096924 436.652222,669.641846 430.349487,673.539917 
	C424.757996,676.998108 418.418030,679.264221 412.352661,681.929504 
	C409.694946,683.097412 406.898438,683.949463 404.164948,684.944885 
	C404.052490,685.520508 403.940002,686.096130 403.827545,686.671753 
	C408.807526,689.077087 413.605194,692.041260 418.815399,693.740845 
	C424.795074,695.691345 431.088837,696.936951 437.342407,697.711365 
	C442.717560,698.376892 443.722595,701.932068 444.170166,706.003113 
	C444.835480,712.054749 442.940460,715.811462 438.396729,716.580750 
	C434.882690,717.175659 430.896149,717.424927 427.593536,716.359192 
	C418.116425,713.301086 408.880066,709.496887 399.234436,705.800293 
M409.534546,662.970154 
	C411.069244,662.337769 412.568115,661.590881 414.146179,661.097229 
	C417.251831,660.125916 417.743835,657.886047 415.968109,655.802185 
	C413.987213,653.477600 409.415192,649.849670 409.097198,650.145813 
	C404.270294,654.641235 398.561432,658.703918 396.718048,667.124146 
	C401.401215,665.626160 405.106293,664.441040 409.534546,662.970154 
z"/>
<path fill="#F8AD6C" opacity="1.000000" stroke="none" 
	d="
M821.649597,656.399292 
	C829.456970,658.136414 829.952881,665.678833 833.535828,670.476624 
	C839.508606,678.474487 839.766968,685.583252 833.908997,693.335876 
	C823.578003,707.008057 809.482910,713.797424 792.310059,714.418335 
	C788.251038,714.565186 786.245605,712.383789 785.554626,709.204773 
	C784.790161,705.687622 784.802856,701.951477 784.870667,698.318115 
	C784.932373,695.013855 787.556396,695.300598 789.977356,695.133667 
	C802.204041,694.290283 812.679443,689.493958 821.394836,680.855469 
	C824.159363,678.115295 824.015503,675.699829 820.190857,674.577942 
	C813.408875,672.588440 806.528259,670.916016 799.644165,669.301331 
	C796.093323,668.468445 792.346863,668.386902 788.861877,667.371460 
	C778.955322,664.485107 775.674194,651.181458 783.012939,643.811768 
	C784.743164,642.074341 786.819397,640.276306 789.074829,639.532959 
	C803.424500,634.803284 817.847534,630.290894 832.303955,625.896118 
	C834.636475,625.187073 837.254944,625.275391 839.743958,625.248230 
	C850.456665,625.131165 857.533020,630.495972 860.344543,640.741516 
	C861.206177,643.881165 857.540100,647.320679 853.348145,647.168030 
	C845.920166,646.897583 838.454834,645.920349 831.082214,646.406799 
	C825.075134,646.803101 819.180725,648.905518 813.236328,650.251343 
	C813.095581,650.705872 812.954895,651.160400 812.814209,651.614929 
	C815.674133,653.119263 818.534119,654.623657 821.649597,656.399292 
z"/>
<path fill="#F7AD6C" opacity="1.000000" stroke="none" 
	d="
M577.472290,674.079956 
	C578.017273,670.954895 578.987610,667.689697 580.048401,664.011230 
	C581.004639,662.766296 582.403442,662.067688 582.649841,661.081238 
	C584.237549,654.724487 585.193359,648.188477 587.105530,641.940491 
	C588.802246,636.396667 589.939026,630.284241 595.943604,627.107849 
	C600.065430,624.927490 601.438232,625.401367 602.722107,629.824341 
	C604.446106,635.763123 606.364868,641.647766 607.957397,647.620361 
	C608.341370,649.060486 608.033569,650.831970 607.595886,652.319153 
	C605.578308,659.174072 603.154907,665.917419 601.342407,672.822876 
	C598.783752,682.571228 598.241089,692.469849 599.842224,702.506531 
	C601.012390,709.841797 597.251282,713.794312 589.834595,714.048889 
	C586.456665,714.164795 584.690125,712.747498 583.430664,709.764343 
	C579.279663,699.931885 577.258057,689.871765 579.024353,679.169922 
	C579.294556,677.533142 578.304688,675.688416 577.472290,674.079956 
z"/>
<path fill="#0B69C8" opacity="1.000000" stroke="none" 
	d="
M755.568787,684.598267 
	C746.753357,691.372375 736.817688,694.431580 725.667480,697.336731 
	C727.864624,691.156189 729.668579,686.043640 731.512451,680.945435 
	C731.731506,680.339722 732.051270,679.678040 732.521729,679.269714 
	C737.678467,674.794678 754.212708,675.044861 760.370605,680.107544 
	C758.820618,681.567078 757.333374,682.967468 755.568787,684.598267 
z"/>
<path fill="#146CC4" opacity="1.000000" stroke="none" 
	d="
M747.442017,642.098755 
	C748.627441,642.162048 749.413269,642.237549 750.199097,642.313110 
	C750.489258,642.778870 750.779419,643.244690 751.069580,643.710449 
	C745.791260,647.805542 740.512939,651.900635 735.438293,655.837646 
	C731.765259,652.763550 729.015564,650.462280 725.674011,647.665649 
	C732.716309,643.816040 739.773682,642.589539 747.442017,642.098755 
z"/>
<path fill="#0C69C7" opacity="1.000000" stroke="none" 
	d="
M660.504883,676.264648 
	C666.486206,675.521851 671.851318,675.774170 676.671021,678.992310 
	C674.671387,685.921509 654.354675,696.491211 642.958130,696.365479 
	C644.903687,690.944763 646.539490,685.586853 648.835876,680.528931 
	C649.440430,679.197266 652.032227,678.637451 653.811462,678.003845 
	C655.837708,677.282288 657.975708,676.874817 660.504883,676.264648 
z"/>
<path fill="#156CC4" opacity="1.000000" stroke="none" 
	d="
M666.747681,642.250610 
	C664.397217,648.973755 658.462769,651.874451 652.622131,654.785767 
	C652.015198,655.088318 650.603394,654.197876 649.784851,653.572998 
	C647.575012,651.885864 645.483887,650.043152 642.655090,647.687012 
	C650.467712,643.512756 658.263367,642.162292 666.747681,642.250610 
z"/>
<path fill="#0768C9" opacity="1.000000" stroke="none" 
	d="
M525.643311,634.280090 
	C533.206726,637.400452 540.786011,639.740906 547.457275,643.636475 
	C552.875061,646.800171 557.290466,651.737976 561.921265,656.130493 
	C562.623779,656.796814 562.609985,659.097656 562.008911,660.080872 
	C560.643005,662.314941 559.092590,664.875977 556.934448,666.110962 
	C546.815796,671.901062 536.465881,677.287231 526.198608,682.817627 
	C525.777283,682.395630 525.356018,681.973633 524.934692,681.551636 
	C525.006958,680.176270 524.930359,678.773865 525.174438,677.429749 
	C527.583435,664.165283 527.656250,650.966858 524.440369,637.796021 
	C524.177551,636.719482 524.966492,635.386230 525.643311,634.280090 
z"/>
<path fill="#126BC5" opacity="1.000000" stroke="none" 
	d="
M409.172943,663.113037 
	C405.106293,664.441040 401.401215,665.626160 396.718048,667.124146 
	C398.561432,658.703918 404.270294,654.641235 409.097198,650.145813 
	C409.415192,649.849670 413.987213,653.477600 415.968109,655.802185 
	C417.743835,657.886047 417.251831,660.125916 414.146179,661.097229 
	C412.568115,661.590881 411.069244,662.337769 409.172943,663.113037 
z"/>
</svg>